<?xml version="1.0" standalone="no"?>
<!DOCTYPE svg PUBLIC "-//W3C//DTD SVG 20010904//EN"
 "http://www.w3.org/TR/2001/REC-SVG-20010904/DTD/svg10.dtd">
<svg version="1.0" xmlns="http://www.w3.org/2000/svg"
 width="256.000000pt" height="256.000000pt" viewBox="0 0 256.000000 256.000000"
 preserveAspectRatio="xMidYMid meet">
<metadata>
Created by potrace 1.16, written by Peter Selinger 2001-2019
</metadata>
<g transform="translate(0.000000,256.000000) scale(0.100000,-0.100000)"
fill="#000000" stroke="none">
<path d="M0 1280 l0 -1280 1280 0 1280 0 0 1280 0 1280 -1280 0 -1280 0 0
-1280z m1397 978 c44 -49 56 -105 55 -241 -1 -146 4 -150 58 -48 17 31 47 78
66 105 35 46 37 48 76 43 22 -3 47 -12 57 -21 10 -9 27 -16 39 -16 16 0 25
-12 41 -55 12 -31 21 -59 21 -64 0 -18 33 -72 50 -81 15 -8 25 -2 58 35 22 25
43 57 47 72 3 15 19 43 34 62 15 20 34 48 43 62 11 16 38 33 76 47 50 19 69
21 121 14 88 -12 98 -24 166 -190 15 -36 17 -61 12 -171 -3 -71 -13 -157 -21
-192 -21 -96 -49 -243 -48 -254 12 -94 11 -230 -2 -285 -14 -58 -14 -65 0 -73
23 -13 32 -48 22 -84 -10 -39 11 -122 48 -186 50 -87 52 -145 8 -244 -17 -39
-30 -47 -69 -50 -16 -1 -43 -4 -58 -8 -22 -6 -33 -2 -52 15 -48 45 -59 86 -62
220 -1 69 -4 199 -7 290 -4 181 7 337 34 445 13 53 16 104 14 207 -2 119 -5
142 -23 172 -12 18 -21 43 -21 54 0 11 -5 24 -10 27 -22 14 -80 -18 -118 -63
-40 -48 -47 -68 -88 -257 -19 -86 -31 -356 -27 -565 1 -41 2 -84 2 -95 0 -11
3 -74 7 -140 3 -66 1 -160 -4 -210 -9 -83 -13 -92 -42 -116 -18 -15 -43 -29
-57 -32 -38 -7 -94 9 -120 35 -49 49 -47 192 6 343 18 51 20 82 19 210 -2 304
4 466 19 526 13 52 13 64 -1 111 -26 86 -87 192 -113 196 -42 6 -166 -128
-191 -208 -58 -177 -59 -700 -1 -921 5 -20 9 -51 9 -68 0 -49 -46 -136 -89
-171 -37 -29 -41 -29 -91 -20 -62 12 -69 15 -68 38 2 66 -17 262 -28 284 -18
35 -18 60 1 133 9 32 18 81 21 109 3 28 7 57 9 64 3 8 12 74 20 148 14 131 13
309 -3 399 -4 22 -4 65 0 95 5 30 9 98 10 150 2 91 0 97 -31 146 -43 69 -48
108 -22 192 24 79 39 97 79 89 15 -3 34 -2 42 4 25 15 56 10 77 -13z m-976
-64 c96 -41 231 -56 307 -35 60 17 192 -17 192 -50 0 -5 15 -32 34 -61 18 -29
38 -77 45 -105 11 -55 7 -268 -8 -375 -14 -104 -85 -180 -203 -217 -20 -7 -42
-19 -49 -27 -11 -13 -9 -19 10 -33 13 -10 46 -26 74 -36 50 -18 86 -39 138
-80 51 -41 67 -77 95 -214 26 -135 26 -135 9 -220 -41 -210 -67 -268 -133
-304 -26 -14 -65 -28 -87 -32 -22 -3 -62 -11 -89 -17 -35 -8 -58 -7 -85 1 -78
24 -299 74 -351 80 -54 6 -56 7 -79 54 l-24 48 19 56 c12 36 27 59 41 66 33
15 50 76 64 226 11 120 7 430 -6 526 -3 17 0 76 7 132 9 86 8 109 -5 150 -9
30 -13 67 -10 98 5 56 -9 105 -31 105 -37 0 -88 36 -112 79 -30 55 -26 107 15
160 48 64 115 71 222 25z m2009 -1894 c0 -7 -372 -10 -1095 -10 -723 0 -1095
3 -1095 10 0 7 372 10 1095 10 723 0 1095 -3 1095 -10z"/>
<path d="M616 2012 c-28 -15 -64 -47 -82 -72 -54 -74 -64 -125 -60 -287 3 -79
7 -146 9 -150 2 -5 1 -32 -2 -61 -12 -84 18 -109 93 -78 34 14 92 69 101 96 3
8 20 25 39 37 53 34 86 129 99 285 8 112 8 132 -7 170 -38 94 -96 113 -190 60z"/>
<path d="M543 1134 c-60 -30 -67 -45 -74 -172 -4 -87 -3 -127 7 -156 8 -21 13
-59 12 -85 -2 -57 22 -114 57 -137 22 -14 32 -15 64 -5 21 6 54 11 74 11 63 0
138 22 153 46 23 35 13 336 -13 389 -31 64 -47 85 -63 85 -8 0 -40 9 -70 20
-65 24 -104 25 -147 4z"/>
</g>
</svg>
